<?xml version="1.0" encoding="utf-8"?>
<!-- Generator: Adobe Illustrator 25.2.1, SVG Export Plug-In . SVG Version: 6.00 Build 0)  -->
<svg version="1.1" id="Layer_1" xmlns="http://www.w3.org/2000/svg" xmlns:xlink="http://www.w3.org/1999/xlink" x="0px" y="0px"
	 viewBox="0 0 345.7 93" style="enable-background:new 0 0 345.7 93;" xml:space="preserve">
<style type="text/css">
	.st0{fill:#FFFFFF;}
</style>
<g id="Layer_2_00000011744338221198092460000015447047125289450667_">
	<g id="Layer_1-2">
		<path id="Logo" class="st0" d="M33.3,65.3c-17.7,0-32-14.4-32-32c0-17.7,14.4-32,32-32s32,14.4,32,32C65.3,51,51,65.3,33.3,65.3z
			 M33.3,4.8C17.6,4.8,4.8,17.6,4.8,33.3s12.8,28.5,28.5,28.5S61.8,49,61.8,33.3S49,4.8,33.3,4.8z M69.2,91.5
			c-8.8,0-15.9-7.1-15.9-15.9s7.1-15.9,15.9-15.9l0,0l0,0c4.2,0,8.2,1.7,11.2,4.7c3,3,4.7,7,4.7,11.2C85.1,84.3,78,91.5,69.2,91.5
			L69.2,91.5z M69.2,61.2c-7.9,0-14.4,6.5-14.4,14.4S61.3,90,69.2,90l0,0c7.9,0,14.4-6.5,14.4-14.4c0-3.8-1.5-7.5-4.2-10.2
			C76.6,62.7,73,61.2,69.2,61.2L69.2,61.2L69.2,61.2z M110,36v-4.1h10.6v9.7c-1,1-2.5,1.9-4.5,2.6s-3.9,1.1-5.9,1.1
			c-2.5,0-4.8-0.5-6.7-1.6s-3.3-2.6-4.3-4.6s-1.4-4.2-1.4-6.5c0-2.5,0.5-4.8,1.6-6.8s2.6-3.5,4.7-4.5c1.6-0.8,3.5-1.2,5.8-1.2
			c3,0,5.4,0.6,7.1,1.9s2.8,3,3.3,5.3l-4.9,0.9c-0.3-1.2-1-2.1-1.9-2.8s-2.1-1-3.5-1c-2.1,0-3.9,0.7-5.1,2s-1.9,3.4-1.9,6.1
			c0,2.9,0.6,5.1,1.9,6.5s3,2.2,5,2.2c1,0,2.1-0.2,3.1-0.6s1.9-0.9,2.7-1.5V36H110z M125.1,45V20.6h18.1v4.1H130v5.4h12.2v4.1H130
			v6.6h13.6V45H125.1z M147.8,45V20.6h4.8l10,16.3V20.6h4.6V45h-4.9l-9.8-15.9V45H147.8z M172.2,45V20.6h4.9V45H172.2z M181.8,20.6
			h4.9v13.2c0,2.1,0.1,3.5,0.2,4.1c0.2,1,0.7,1.8,1.5,2.4c0.8,0.6,1.9,0.9,3.2,0.9c1.4,0,2.4-0.3,3.2-0.9s1.1-1.3,1.3-2.1
			c0.1-0.8,0.2-2.2,0.2-4.1V20.6h4.9v12.8c0,2.9-0.1,5-0.4,6.2s-0.8,2.2-1.5,3.1c-0.7,0.8-1.7,1.5-2.9,2s-2.8,0.7-4.7,0.7
			c-2.3,0-4.1-0.3-5.3-0.8s-2.2-1.2-2.8-2.1c-0.7-0.9-1.2-1.8-1.4-2.7c-0.3-1.4-0.5-3.5-0.5-6.2v-13H181.8z M203.9,45l8.3-12.7
			l-7.5-11.6h5.7l4.9,7.8l4.8-7.8h5.7l-7.6,11.8l8.3,12.5h-5.9l-5.4-8.4l-5.4,8.4H203.9z M238.5,45V20.6h7.4l4.4,16.6l4.4-16.6h7.4
			V45h-4.6V25.8L252.6,45h-4.7L243,25.8V45H238.5z M266.8,20.6h4.9v13.2c0,2.1,0.1,3.5,0.2,4.1c0.2,1,0.7,1.8,1.5,2.4
			s1.9,0.9,3.2,0.9c1.4,0,2.4-0.3,3.2-0.9c0.7-0.6,1.1-1.3,1.3-2.1c0.1-0.8,0.2-2.2,0.2-4.1V20.6h4.9v12.8c0,2.9-0.1,5-0.4,6.2
			s-0.8,2.2-1.5,3.1c-0.7,0.8-1.7,1.5-2.9,2c-1.2,0.5-2.8,0.7-4.7,0.7c-2.3,0-4.1-0.3-5.3-0.8c-1.2-0.5-2.2-1.2-2.8-2.1
			c-0.7-0.9-1.2-1.8-1.4-2.7c-0.3-1.4-0.5-3.5-0.5-6.2L266.8,20.6L266.8,20.6z M290.2,37l4.8-0.5c0.3,1.6,0.9,2.8,1.8,3.5
			c0.9,0.8,2.1,1.1,3.6,1.1c1.6,0,2.8-0.3,3.6-1s1.2-1.5,1.2-2.4c0-0.6-0.2-1.1-0.5-1.5s-0.9-0.8-1.8-1.1c-0.6-0.2-1.9-0.6-3.9-1.1
			c-2.6-0.7-4.5-1.5-5.5-2.4c-1.5-1.3-2.2-3-2.2-4.9c0-1.2,0.4-2.4,1.1-3.5s1.7-1.9,3-2.5s2.9-0.8,4.8-0.8c3.1,0,5.4,0.7,6.9,2
			s2.4,3.1,2.4,5.4l-4.9,0.2c-0.2-1.3-0.7-2.2-1.4-2.7c-0.7-0.5-1.7-0.8-3.1-0.8s-2.5,0.3-3.4,0.9c-0.5,0.4-0.8,0.9-0.8,1.5
			s0.2,1.1,0.7,1.5c0.6,0.5,2.1,1.1,4.5,1.6s4.2,1.1,5.3,1.8c1.1,0.6,2,1.4,2.7,2.5c0.6,1,1,2.3,1,3.9c0,1.4-0.4,2.7-1.2,3.9
			c-0.8,1.2-1.9,2.1-3.3,2.7c-1.4,0.6-3.2,0.9-5.3,0.9c-3.1,0-5.4-0.7-7.1-2.1C291.5,41.8,290.5,39.8,290.2,37z M314,45V20.6h4.9V45
			H314z M339.2,36l4.8,1.5c-0.7,2.7-1.9,4.6-3.6,5.9s-3.9,1.9-6.5,1.9c-3.2,0-5.9-1.1-8-3.3s-3.1-5.2-3.1-9.1c0-4.1,1-7.2,3.1-9.4
			s4.8-3.4,8.3-3.4c3,0,5.4,0.9,7.3,2.6c1.1,1,1.9,2.5,2.5,4.5l-4.9,1.2c-0.3-1.3-0.9-2.3-1.8-3s-2-1.1-3.3-1.1
			c-1.8,0-3.3,0.6-4.4,1.9s-1.7,3.4-1.7,6.3c0,3.1,0.6,5.3,1.7,6.6s2.5,2,4.3,2c1.3,0,2.4-0.4,3.4-1.2
			C338.1,39.1,338.7,37.8,339.2,36z M97.7,70.4V57.1h9v1.6h-7.2v4.1h6.2v1.6h-6.2v6C99.5,70.4,97.7,70.4,97.7,70.4z M108.4,63.9
			c0-2.2,0.6-3.9,1.8-5.2c1.2-1.2,2.7-1.9,4.6-1.9c1.2,0,2.3,0.3,3.3,0.9c1,0.6,1.7,1.4,2.3,2.5c0.5,1,0.8,2.2,0.8,3.6
			c0,1.3-0.3,2.6-0.8,3.6c-0.5,1.1-1.3,1.9-2.3,2.4s-2.1,0.8-3.2,0.8c-1.3,0-2.4-0.3-3.4-0.9s-1.7-1.4-2.2-2.5
			C108.6,66.2,108.4,65.1,108.4,63.9z M110.2,63.9c0,1.6,0.4,2.9,1.3,3.8s1.9,1.4,3.2,1.4c1.3,0,2.4-0.5,3.3-1.4s1.3-2.2,1.3-4
			c0-1.1-0.2-2-0.5-2.8c-0.4-0.8-0.9-1.4-1.6-1.9c-0.7-0.4-1.5-0.7-2.4-0.7c-1.2,0-2.3,0.4-3.2,1.3
			C110.7,60.5,110.2,61.9,110.2,63.9z M123.4,70.4V57.1h5.9c1.2,0,2.1,0.1,2.7,0.4c0.6,0.2,1.1,0.7,1.5,1.3s0.6,1.3,0.6,2
			c0,0.9-0.3,1.7-0.9,2.4s-1.6,1.1-2.8,1.2c0.5,0.2,0.8,0.4,1.1,0.7c0.5,0.5,1,1.1,1.5,1.8l2.3,3.6h-2.2l-1.8-2.8
			c-0.5-0.8-0.9-1.4-1.3-1.8c-0.3-0.4-0.6-0.7-0.9-0.9c-0.3-0.2-0.5-0.3-0.8-0.4c-0.2,0-0.5-0.1-1-0.1h-2v5.9
			C125.3,70.4,123.4,70.4,123.4,70.4z M125.2,62.9h3.8c0.8,0,1.4-0.1,1.9-0.2c0.5-0.2,0.8-0.4,1-0.8c0.2-0.4,0.4-0.8,0.4-1.2
			c0-0.6-0.2-1.1-0.7-1.5s-1.2-0.6-2.2-0.6h-4.2V62.9z M144.2,70.4l-3.5-13.3h1.8l2,8.7c0.2,0.9,0.4,1.8,0.6,2.7
			c0.3-1.4,0.5-2.2,0.6-2.5l2.5-9h2.1l1.9,6.7c0.5,1.7,0.8,3.2,1,4.7c0.2-0.8,0.4-1.8,0.7-2.9L156,57h1.8l-3.6,13.3h-1.7l-2.8-10.1
			c-0.2-0.8-0.4-1.4-0.4-1.6c-0.1,0.6-0.3,1.1-0.4,1.6L146,70.4H144.2z M157.3,70.4l5.1-13.3h1.9l5.4,13.3h-2l-1.5-4h-5.6l-1.5,4
			H157.3z M161.1,64.9h4.5l-1.4-3.7c-0.4-1.1-0.7-2-0.9-2.8c-0.2,0.9-0.4,1.7-0.7,2.5L161.1,64.9z M171.2,70.4V57.1h5.9
			c1.2,0,2.1,0.1,2.7,0.4c0.6,0.2,1.1,0.7,1.5,1.3s0.6,1.3,0.6,2c0,0.9-0.3,1.7-0.9,2.4s-1.6,1.1-2.8,1.2c0.5,0.2,0.8,0.4,1.1,0.7
			c0.5,0.5,1,1.1,1.5,1.8l2.3,3.6h-2.2l-1.8-2.8c-0.5-0.8-0.9-1.4-1.3-1.8c-0.3-0.4-0.6-0.7-0.9-0.9c-0.3-0.2-0.5-0.3-0.8-0.4
			c-0.2,0-0.5-0.1-1-0.1h-2v5.9C173.1,70.4,171.2,70.4,171.2,70.4z M172.9,62.9h3.8c0.8,0,1.4-0.1,1.9-0.2c0.5-0.2,0.8-0.4,1-0.8
			s0.4-0.8,0.4-1.2c0-0.6-0.2-1.1-0.7-1.5s-1.2-0.6-2.2-0.6h-4.2V62.9z M184.6,70.4V57.1h5.9c1.2,0,2.1,0.1,2.7,0.4
			c0.6,0.2,1.1,0.7,1.5,1.3s0.6,1.3,0.6,2c0,0.9-0.3,1.7-0.9,2.4s-1.6,1.1-2.8,1.2c0.5,0.2,0.8,0.4,1.1,0.7c0.5,0.5,1,1.1,1.5,1.8
			l2.3,3.6h-2.2l-1.8-2.8c-0.5-0.8-0.9-1.4-1.3-1.8s-0.6-0.7-0.9-0.9c-0.3-0.2-0.5-0.3-0.8-0.4c-0.2,0-0.5-0.1-1-0.1h-2v5.9
			C186.5,70.4,184.6,70.4,184.6,70.4z M186.3,62.9h3.8c0.8,0,1.4-0.1,1.9-0.2c0.5-0.2,0.8-0.4,1-0.8c0.2-0.4,0.4-0.8,0.4-1.2
			c0-0.6-0.2-1.1-0.7-1.5s-1.2-0.6-2.2-0.6h-4.2V62.9z M198.2,70.4V57.1h1.8v13.3H198.2z M202.6,63.9c0-2.2,0.6-3.9,1.8-5.2
			c1.2-1.2,2.7-1.9,4.6-1.9c1.2,0,2.3,0.3,3.3,0.9c1,0.6,1.7,1.4,2.3,2.5c0.5,1,0.8,2.2,0.8,3.6c0,1.3-0.3,2.6-0.8,3.6
			c-0.5,1.1-1.3,1.9-2.3,2.4s-2.1,0.8-3.2,0.8c-1.2,0-2.4-0.3-3.4-0.9s-1.7-1.4-2.2-2.5C202.8,66.2,202.6,65.1,202.6,63.9z
			 M204.4,63.9c0,1.6,0.4,2.9,1.3,3.8c0.9,0.9,1.9,1.4,3.2,1.4s2.4-0.5,3.3-1.4c0.9-0.9,1.3-2.2,1.3-4c0-1.1-0.2-2-0.5-2.8
			s-0.9-1.4-1.6-1.9c-0.7-0.4-1.5-0.7-2.4-0.7c-1.2,0-2.3,0.4-3.2,1.3C204.8,60.5,204.4,61.9,204.4,63.9z M217.6,70.4V57.1h5.9
			c1.2,0,2.1,0.1,2.7,0.4c0.6,0.2,1.1,0.7,1.5,1.3s0.6,1.3,0.6,2c0,0.9-0.3,1.7-0.9,2.4s-1.6,1.1-2.8,1.2c0.5,0.2,0.8,0.4,1.1,0.7
			c0.5,0.5,1,1.1,1.5,1.8l2.3,3.6h-2.2l-1.8-2.8c-0.5-0.8-0.9-1.4-1.3-1.8s-0.6-0.7-0.9-0.9c-0.3-0.2-0.5-0.3-0.8-0.4
			c-0.2,0-0.5-0.1-1-0.1h-2v5.9C219.5,70.4,217.6,70.4,217.6,70.4z M219.3,62.9h3.8c0.8,0,1.4-0.1,1.9-0.2c0.5-0.2,0.8-0.4,1-0.8
			c0.2-0.4,0.4-0.8,0.4-1.2c0-0.6-0.2-1.1-0.7-1.5s-1.2-0.6-2.2-0.6h-4.2V62.9z M230.3,66.1L232,66c0.1,0.7,0.3,1.2,0.5,1.6
			s0.7,0.8,1.3,1c0.6,0.3,1.3,0.4,2,0.4s1.3-0.1,1.8-0.3s0.9-0.5,1.1-0.8c0.2-0.3,0.4-0.7,0.4-1.1s-0.1-0.8-0.4-1.1
			c-0.2-0.3-0.6-0.6-1.2-0.8c-0.4-0.1-1.1-0.4-2.4-0.6c-1.2-0.3-2.1-0.6-2.6-0.8c-0.6-0.3-1.1-0.7-1.4-1.2c-0.3-0.5-0.5-1-0.5-1.7
			s0.2-1.3,0.6-1.9s0.9-1,1.7-1.3c0.7-0.3,1.5-0.5,2.4-0.5c1,0,1.9,0.2,2.6,0.5c0.8,0.3,1.3,0.8,1.7,1.4c0.4,0.6,0.6,1.3,0.7,2.1
			l-1.7,0.1c-0.1-0.8-0.4-1.5-0.9-1.9s-1.3-0.6-2.3-0.6c-1.1,0-1.8,0.2-2.3,0.6s-0.7,0.9-0.7,1.4s0.2,0.9,0.5,1.2s1.2,0.6,2.7,0.9
			s2.4,0.6,2.9,0.8c0.8,0.4,1.3,0.8,1.7,1.4s0.6,1.2,0.6,1.9c0,0.7-0.2,1.4-0.6,2c-0.4,0.6-1,1.1-1.7,1.5c-0.8,0.3-1.6,0.5-2.6,0.5
			c-1.2,0-2.2-0.2-3-0.5c-0.8-0.4-1.5-0.9-1.9-1.6C230.6,67.8,230.4,67,230.3,66.1z"/>
	</g>
</g>
</svg>
