<svg width="702" height="620" viewBox="0 0 702 620" fill="none" xmlns="http://www.w3.org/2000/svg">
<g clip-path="url(#clip0_139_4)">
<path d="M182.247 291.333H128.437C133.203 290.313 136.95 288.27 140.017 284.863C143.083 281.457 144.443 277.37 144.443 272.943V9.66669L90.29 243.31L79.05 291.333L78.03 286.567L17.0667 24.6667V274.313C17.0667 278.74 18.4289 282.486 21.1533 285.55C23.8767 288.617 27.2833 290.32 31.71 291.34H0.043335C4.14743 290.75 7.8988 288.693 10.6033 285.55C13.3256 282.488 14.6878 278.742 14.69 274.313V17.5067C14.69 16.4834 14.69 15.1234 14.3567 14.1C14.0233 11.0367 12.6567 8.65002 10.6133 6.26668C7.90707 3.12597 4.15655 1.06958 0.0533346 0.476685H33.7533L88.9267 238.54L144.443 0.476685H182.247C177.768 1.03743 173.649 3.21788 170.667 6.60669C167.603 10.0134 166.24 14.1 166.24 18.5267V272.94C166.204 277.424 167.774 281.773 170.667 285.2C173.733 288.267 177.48 290.31 182.247 291.333Z" fill="white"/>
<path d="M273.86 291.333C277.607 290.667 281.013 288.95 283.397 285.887C285.814 283.165 287.147 279.65 287.143 276.01C287.201 275.088 287.088 274.164 286.81 273.283L274.547 204.827C272.503 195.29 269.44 187.117 265.353 179.967C261.267 172.817 257.52 168.047 254.453 165.32C250.027 161.573 245.26 159.87 240.15 159.87C233.68 159.87 227.89 162.597 222.1 167.703C216.31 173.153 212.563 180.307 210.86 188.82L199.96 248.08L198.94 252.85L195.193 274.647C194.86 274.98 194.86 275.667 194.86 276.01V277.37C194.86 280.777 195.88 283.84 198.267 286.227C200.65 288.95 203.373 290.653 206.78 291.333H175.447C184.983 289.29 190.78 283.5 192.817 274.307L197.243 251.827L197.91 247.4L237.76 31.1333C238.38 27.3031 238.721 23.4329 238.78 19.5533C238.778 16.3628 238.555 13.1764 238.113 10.0166C237.447 7.63331 236.75 5.58998 236.07 4.22664C235.047 2.86331 234.367 1.84331 233.687 1.16331C233.353 1.16331 233.353 0.829976 233.02 0.829976L232.687 0.496643H259.593L308.977 273.3C309.997 278.07 312.04 282.157 315.447 285.22C318.648 288.484 322.817 290.627 327.333 291.333H273.86ZM215.62 162.933C217.807 160.031 220.755 157.792 224.137 156.463C227.551 155.373 231.109 154.799 234.693 154.76C239.043 154.736 243.345 155.666 247.297 157.483C253.087 160.55 257.853 164.637 261.26 169.743C264.432 174.486 267.168 179.507 269.433 184.743L271.477 188.83L241.507 22.6266L215.62 162.933Z" fill="white"/>
<path d="M384.89 0.476685C380.411 1.03593 376.291 3.21664 373.31 6.60669C370.243 10.0134 368.88 14.1 368.88 18.5267V243.667C368.88 256.95 364.113 268.19 354.917 277.383C345.72 286.577 334.483 291.333 321.2 291.333H318.817C326.99 290.313 333.817 286.567 338.91 280.097C344.36 273.283 347.083 264.43 347.083 253.87V18.5367C347.083 14.11 345.723 10.0233 342.657 6.61668C339.675 3.22737 335.556 1.04684 331.077 0.486694L384.89 0.476685Z" fill="white"/>
<path d="M436.667 0.476685C432.311 1.12107 428.327 3.29396 425.427 6.60669C422.35 10 421 14.1 421 18.5267V272.94C421 277.367 422.363 281.453 425.427 284.86C428.49 288.267 432.24 290.31 436.667 291.33H383.183C387.95 290.31 391.697 288.267 394.763 284.86C397.83 281.453 399.19 277.367 399.19 272.94V18.5267C399.19 14.1 397.827 10.0134 394.763 6.60669C391.781 3.21788 387.662 1.03743 383.183 0.476685H436.667Z" fill="white"/>
<path d="M511.24 2.52002V272.94C511.24 277.707 512.943 281.793 515.667 285.2C518.608 288.461 522.573 290.623 526.907 291.33H473.437C477.865 290.691 481.916 288.483 484.853 285.107C487.79 281.732 489.416 277.414 489.437 272.94V2.52002H477.857C452.653 2.52002 434.263 19.21 428.133 45.7734L432.22 0.476685H568.45L572.197 45.7734C566.067 19.21 547.677 2.52002 522.813 2.52002H511.24Z" fill="white"/>
<path d="M648.493 291.333C652.237 290.667 655.643 288.95 658.027 285.887C660.445 283.166 661.779 279.65 661.773 276.01C661.831 275.088 661.718 274.164 661.44 273.283L649.18 204.827C647.137 195.29 644.07 187.117 639.983 179.967C635.897 172.817 632.15 168.047 629.087 165.32C624.657 161.573 619.89 159.87 614.78 159.87C608.31 159.87 602.52 162.597 596.73 167.703C590.94 173.153 587.193 180.307 585.49 188.82L574.593 248.08L573.57 252.85L569.823 274.647C569.49 274.98 569.49 275.667 569.49 276.01V277.37C569.49 280.777 570.513 283.84 572.897 286.227C575.28 288.95 578.007 290.653 581.41 291.333H550.077C559.613 289.29 565.41 283.5 567.447 274.307L571.877 251.827L572.543 247.4L612.39 31.1333C613.012 27.3033 613.354 23.4331 613.413 19.5533C613.413 16.3628 613.19 13.1762 612.747 10.0166C612.08 7.63331 611.387 5.58998 610.703 4.22664C609.683 2.86331 609 1.84331 608.32 1.16331C607.987 1.16331 607.987 0.829976 607.653 0.829976L607.32 0.496643H634.223L683.607 273.3C684.63 278.07 686.673 282.157 690.08 285.22C693.287 288.497 697.469 290.647 702 291.35L648.493 291.333ZM590.253 162.933C592.438 160.031 595.385 157.791 598.767 156.463C602.182 155.373 605.742 154.799 609.327 154.76C613.675 154.737 617.976 155.666 621.927 157.483C627.717 160.55 632.483 164.637 635.89 169.743C639.064 174.485 641.799 179.506 644.063 184.743L646.107 188.83L616.137 22.6266L590.253 162.933Z" fill="white"/>
<path d="M182.247 617.82H128.437C133.203 616.797 136.95 614.753 140.017 611.35C143.083 607.947 144.443 603.857 144.443 599.43V336.163L90.29 569.8L79.05 617.82L78.03 613.053L17.0667 351.147V600.79C17.0667 605.219 18.4289 608.966 21.1533 612.03C23.8767 615.097 27.2833 616.797 31.71 617.82H0.043335C4.14743 617.23 7.8988 615.173 10.6033 612.03C13.3256 608.963 14.6878 605.217 14.69 600.79V344C14.69 342.977 14.69 341.613 14.3567 340.593C14.0233 337.527 12.6567 335.143 10.6133 332.76C7.9088 329.617 4.15743 327.56 0.0533346 326.97H33.7533L88.9267 565.033L144.443 326.967H182.247C177.767 327.525 173.647 329.706 170.667 333.097C167.603 336.503 166.24 340.59 166.24 345.017V599.43C166.204 603.914 167.774 608.263 170.667 611.69C173.733 614.753 177.48 616.797 182.247 617.82Z" fill="white"/>
<path d="M273.86 617.82C277.607 617.153 281.013 615.437 283.397 612.37C285.815 609.649 287.148 606.134 287.143 602.493C287.201 601.573 287.088 600.65 286.81 599.77L274.547 531.313C272.503 521.777 269.44 513.603 265.353 506.45C261.267 499.297 257.52 494.53 254.453 491.807C250.027 488.06 245.26 486.357 240.15 486.357C233.68 486.357 227.89 489.08 222.1 494.19C216.31 499.64 212.563 506.79 210.86 515.307L199.96 574.567L198.94 579.333L195.193 601.133C194.86 601.467 194.86 602.153 194.86 602.493V603.857C194.86 607.263 195.88 610.327 198.267 612.71C200.65 615.437 203.373 617.14 206.78 617.82H175.447C184.983 615.777 190.78 609.987 192.817 600.79L197.243 578.313L197.91 573.887L237.76 357.62C238.38 353.79 238.72 349.92 238.78 346.04C238.778 342.85 238.555 339.663 238.113 336.503C237.447 334.12 236.75 332.077 236.07 330.713C235.047 329.35 234.367 328.33 233.687 327.647C233.353 327.647 233.353 327.313 233.02 327.313L232.687 326.98H259.593L308.977 599.783C309.997 604.55 312.04 608.637 315.447 611.703C318.654 614.979 322.836 617.13 327.367 617.833L273.86 617.82ZM215.62 489.423C217.807 486.521 220.755 484.281 224.137 482.95C227.54 481.93 230.947 481.247 234.693 481.247C239.043 481.224 243.345 482.155 247.297 483.973C253.087 487.037 257.853 491.123 261.26 496.233C264.433 500.976 267.169 505.996 269.433 511.233L271.477 515.32L241.507 349.117L215.62 489.423Z" fill="white"/>
<path d="M351.51 599.77C339.93 586.486 331.074 568.776 324.943 546.64C318.473 524.5 315.407 499.973 315.407 473.073C315.407 446.173 318.473 421.647 324.943 399.51C331.413 377.373 340.61 360.003 352.53 346.72C364.45 333.437 378.753 326.967 395.443 326.967H447.55L451.297 372.263C443.463 343.313 427.117 329.01 401.913 329.01H397.487C384.203 329.01 373.307 335.48 364.45 348.423C355.257 361.363 348.446 378.732 344.017 400.53C339.587 422.327 337.203 446.51 337.203 473.073C337.203 512.923 342.993 546.64 354.573 574.907C366.153 603.173 379.777 617.14 395.443 617.14C399.19 617.14 403.957 616.117 409.747 614.413C420.647 610.667 428.48 602.833 433.247 590.573C436.343 581.157 438.51 571.461 439.717 561.623C439.657 559.914 439.768 558.203 440.05 556.517C441.07 548.343 441.41 537.783 441.41 524.5C441.41 480.907 432.897 451.277 416.21 435.61C410.077 430.16 402.927 425.393 394.41 421.307C373.297 410.407 362.743 395.083 362.743 376.01C362.743 362.388 367.854 351.149 378.077 342.293C385.91 335.48 394.766 332.074 404.643 332.077H404.977C404.977 332.41 404.643 332.41 403.953 332.41C402.933 332.743 401.91 332.743 400.207 333.077C389.65 335.8 380.793 340.91 374.323 349.077C368.193 356.23 365.127 365.077 365.127 375.983C365.127 385.18 368.533 394.033 375.347 403.23C381.817 412.423 393.057 419.563 409.063 425.027L411.107 425.693C424.39 431.483 445.847 436.593 475.137 441.36C470.707 441.693 466.96 443.403 463.897 446.81C460.83 450.557 459.47 457.71 459.47 468.607V617.78L448.23 604.157C445.503 601.433 442.44 600.07 439.373 600.07C435.627 600.07 432.563 601.433 429.497 604.157C423.027 610.627 416.557 615.057 410.767 616.757C404.637 618.46 398.847 619.483 393.057 619.483C377.053 619.523 363.087 613.053 351.51 599.77Z" fill="white"/>
</g>
<defs>
<clipPath id="clip0_139_4">
<rect width="702" height="620" fill="white"/>
</clipPath>
</defs>
</svg>
